<svg xmlns="http://www.w3.org/2000/svg" width="59.1" height="62.506"><g fill="#bdbdbd"><path d="M8.1 43.538c-.1-.3-.2-.6-.3-1-.1-.3-.2-.6-.2-1-.1-.3-.1-.7-.2-1-2.6-2.6-4.1-4.1-6.3-4.2H.3c0 .4.1.7.1 1.1 0 .4.1.7.2 1.1.1.4.1.7.2 1.1.1.4.1.7.2 1 2.6-.1 4.3 1.1 7.5 3.8-.2-.2-.3-.6-.4-.9zm8.8 13c-1.7-1.8-3.2-4.1-4.4-6.6-1.3-2.6-2.2-5.5-2.9-8.6-.7-3.1-1.1-6.5-1.1-10 0-4.2.5-8.3 1.5-11.9 1-3.7 2.4-6.9 4.2-9.7 1.7-2.7 3.8-5 6.1-6.5 2.2-1.5 4.7-2.5 7.3-2.6-.4 0-.9.1-1.3.1-2.6.2-5 1.1-7.3 2.6-2.3 1.6-4.3 3.8-6.1 6.5-1.8 2.8-3.2 6-4.2 9.7-1 3.7-1.5 7.7-1.5 11.9 0 3.5.4 6.8 1.1 9.9.7 3.1 1.7 6 2.9 8.5s2.7 4.8 4.4 6.6c1.7 1.8 3.5 3.2 5.5 4.2l1.3.1c-2-1-3.8-2.4-5.5-4.2z" class="st0"/><path d="M18.9 56.638c-1.7-1.8-3.2-4.1-4.4-6.6-1.2-2.6-2.2-5.5-2.9-8.6-.7-3.1-1.1-6.5-1.1-10 0-4.2.5-8.3 1.5-12 1-3.7 2.4-7 4.2-9.7 1.7-2.7 3.8-5 6.1-6.5 2.2-1.6 4.7-2.5 7.2-2.6-.4 0-.9.1-1.3.1-2.6.2-5 1.1-7.3 2.6-2.3 1.6-4.3 3.8-6.1 6.5-1.8 2.8-3.2 6-4.2 9.7-1 3.7-1.5 7.7-1.5 11.9 0 3.5.4 6.9 1.1 10 .7 3.1 1.7 6 2.9 8.6 1.2 2.6 2.7 4.8 4.4 6.6 1.7 1.8 3.5 3.2 5.5 4.2l1.3.1c-1.9-1.1-3.7-2.5-5.4-4.3zm-11.8-17.9c-.1-.3-.1-.7-.2-1 0-.3-.1-.7-.1-1 0-.4-.1-.7-.1-1.1 0-.4-.1-.7-.1-1.1-2.4-3-3.7-4.3-5.8-4.4H0v3.6c0 .3 0 .6.1.8 2.7 0 4.2 1.3 7 4.2zm11.8 21c-.2-.1-.4-.3-.6-.4-.2-.1-.4-.3-.6-.4-.2-.1-.4-.3-.6-.5-5.1-1.9-6-2.3-7.9-2.4h-.8l.6.6.6.6c.2.2.4.4.6.5.2.2.4.3.6.5 2.2.1 2.7.2 8.7 1.9-.2-.1-.4-.2-.6-.4zm-12.4-27.3v-4.4c-1.9-2.9-3.1-4.1-5.2-4.2H.5c-.1.4-.1.7-.2 1.1-.1.4-.1.7-.1 1.1 0 .4-.1.7-.1 1.1 0 .4-.1.7-.1 1.1 2.8-.1 4.2 1.3 6.5 4.2zm9 24.6c-.2-.2-.4-.4-.5-.6-.2-.2-.4-.4-.5-.6-.2-.2-.3-.4-.5-.6-3.9-2-5.5-2.8-7.6-3h-.8c.2.3.3.5.5.8.2.2.3.5.5.7.2.2.3.5.5.7.2.2.4.4.5.7 2.5 0 4.3.7 8.5 2.5l-.6-.6zm-5.5-8.2c-.1-.3-.2-.6-.4-.8-.1-.3-.2-.6-.4-.9l-.3-.9c-3-2.5-4.6-3.8-6.8-3.9h-.8c.1.3.2.7.3 1 .1.3.2.7.3 1 .1.3.2.6.3 1l.3.9c2.6-.1 4.3.9 7.9 3.4-.1-.2-.3-.5-.4-.8zm11.9-47.4c.2-.1.4-.1.6-.2.2-.1.4-.1.6-.2.2-.1.4-.1.7-.1.2 0 .4-.1.7-.1h-.2l-5.1.3H18c3-.1 3.5-.1 3.9.3zm-3.6 1.9c.2-.1.4-.3.6-.4.2-.1.4-.2.6-.4l.6-.3.6-.3c-.4-.5-.8-.7-3-.6-.3 0-.6 0-.8.1-.2.1-.5.1-.7.2-.2.1-.5.1-.7.2-.2.1-.5.2-.7.3-.2.1-.4.2-.7.3 2.9-.3 3.6 0 4.2.9zm-3.3 2.9c.2-.2.4-.4.5-.6l.5-.5c.2-.2.4-.3.6-.5.2-.2.4-.3.6-.5-.5-1-1.1-1.4-3.2-1.3-.3 0-.6 0-.8.1-.2.1-.4.2-.6.4-.2.1-.4.3-.6.4-.2.1-.4.3-.6.4-.2.2-.4.3-.6.5 2.6-.3 3.4.2 4.2 1.6zm-3 3.8c.2-.2.3-.5.5-.7.2-.2.3-.5.5-.7.2-.2.3-.4.5-.7.2-.2.3-.4.5-.6-.7-1.4-1.4-2.1-3.5-2-.3 0-.6 0-.8.1l-.6.6-.6.6-.6.6c-.2.2-.4.4-.5.6 2.8-.3 3.7.4 4.6 2.2zm-4.2 10.1c.1-.3.2-.6.3-1l.3-.9.3-.9.3-.9c-1.2-2.2-2.1-3.2-4.2-3.2H4c-.1.3-.3.6-.4.9-.1.3-.3.6-.4.9-.1.3-.3.6-.4.9-.1.3-.2.6-.4.9 2.8-.3 3.9.7 5.4 3.3zm1.8-5.4c.1-.3.2-.6.4-.8.1-.3.3-.6.4-.8.1-.3.3-.5.4-.8.1-.3.3-.5.4-.8-.9-1.9-1.7-2.7-3.8-2.7h-.8c-.2.2-.3.5-.5.7-.2.2-.3.5-.5.7-.2.3-.3.5-.5.8-.2.3-.3.5-.5.8 2.8-.2 3.8.7 5 2.9zm-2.8 11.4c0-.4.1-.7.1-1 0-.3.1-.7.2-1 .1-.3.1-.7.2-1 .1-.3.1-.7.2-1-1.5-2.6-2.6-3.7-4.7-3.8H2c-.1.3-.2.7-.3 1-.1.3-.2.7-.3 1-.1.3-.2.7-.3 1-.1.3-.2.7-.2 1 2.7-.3 3.9.9 5.9 3.8zm5.7 27.2c-.2-.2-.3-.5-.5-.7-.2-.2-.3-.5-.4-.7-.1-.2-.3-.5-.4-.8-3.1-2.1-5-3.3-7.3-3.5h-.8c.1.3.3.6.4.9.1.3.3.6.4.9.1.3.3.6.4.8.1.3.3.5.4.8 2.6 0 4.4.9 8.2 3-.1-.2-.2-.4-.4-.7z" class="st0"/><path d="M29.2 3.138c.2-.2.4-.3.6-.5.2-.2.4-.3.6-.4.2-.1.4-.3.6-.4h-.4c-2.6.1-5.3.7-8.7 2-.2.2-.4.3-.6.5-.2.2-.4.3-.6.5l-.5.5c-.2.2-.4.4-.5.6 3.6-1.6 6.1-2.3 8.9-2.4.2-.1.4-.2.6-.4zm-8.3 12.1c.1-.3.2-.6.4-.9.1-.3.3-.6.4-.9.1-.3.3-.6.4-.9h-.4c-2.4 0-4.6 1.1-7.8 3.7l-.3.9-.3.9c-.1.3-.2.6-.3 1-.1.3-.2.6-.3 1 3.1-2.8 5.2-3.9 7.9-3.8.1-.3.2-.6.3-1z" class="st0"/><path d="M32.8 1.038c.2-.1.4-.2.7-.3.2-.1.4-.2.7-.2.2-.1.5-.1.7-.2h-.4c-4 .2-6.8.8-8.9 1.3l-.6.3-.6.3c-.2.1-.4.2-.6.4-.2.1-.4.3-.6.4 3.4-1.1 6.1-1.6 9.1-1.7 0-.1.2-.2.5-.3zm-9.6 9.3c.2-.3.3-.5.5-.8.2-.3.3-.5.5-.8.2-.3.3-.5.5-.7h-.4c-2.4.1-4.8 1-8.2 3.2-.1.3-.3.5-.4.8-.1.3-.3.5-.4.8-.1.3-.3.6-.4.8-.1.3-.2.6-.4.9 3.8-2.9 6-3.4 8.3-3.4.1-.2.2-.5.4-.8zm2.8-4.1l.6-.6.6-.6.6-.6h-.4c-2.5.1-5 .9-8.5 2.7-.2.2-.3.4-.5.6-.2.2-.3.4-.5.7-.2.2-.3.5-.5.7-.2.2-.3.5-.5.7 4.1-2.4 6.4-2.9 8.6-2.9.1-.2.3-.4.5-.7zm4.8 54.4c-.2-.1-.4-.2-.5-.3-.2-.1-.3-.2-.5-.4h-.4c-2.1-.1-3.1.1-3.8 1l6.4.4c-.2-.1-.4-.2-.5-.3-.3-.2-.5-.3-.7-.4z" class="st0"/><path d="M28.6.638c-.2 0-.4.1-.7.1-.2.1-.4.1-.6.2-.2.1-.4.1-.6.2 2.4-.4 4.9-.8 9.2-1h1.2l-5.4.3c-1.2.1-1.7.1-2.4.2-.3-.1-.5 0-.7 0zm-16.9 58.3c.2.1.4.2.5.3.2.1.4.2.5.3.2.1.4.2.5.3.2.1.4.2.5.3 1.8.1 4.3.2 6.1.4-5.9-1.5-5.9-1.5-7.5-1.6h-.6zm8.3-41.1h-.4c-2.4 0-4.4 1.1-7.4 4.1-.1.3-.1.7-.2 1-.1.3-.1.7-.2 1-.1.3-.1.7-.2 1-.1.3-.1.7-.1 1.1 2.8-3.1 4.8-4.2 7.4-4.1.1-.4.1-.7.2-1.1.1-.4.2-.7.2-1.1.1-.3.2-.7.3-1 .2-.3.3-.6.4-.9zm-1.3 37.7c.2.2.3.4.5.6.2.2.3.4.5.6.2.2.4.4.5.6l.5.5c.9-1.6 2.2-2.1 4.8-1.9-.2-.2-.4-.5-.5-.7-.2-.2-.3-.5-.5-.7-.2-.2-.3-.5-.5-.7-.2-.3-.3-.5-.5-.8h-.4c-2.2-.2-3.4.5-4.4 2.5zm3.3-5.5c-.1-.3-.3-.6-.4-.9-.1-.3-.3-.6-.4-.9h-.4c-2.3-.1-3.5.7-4.8 3.1.1.3.3.5.4.8.1.3.3.5.4.7.2.2.3.5.5.7.2.2.3.5.5.7 1.1-2.1 2.5-2.7 5.1-2.5-.2-.3-.3-.6-.4-.8-.2-.3-.4-.6-.5-.9zm-2-5.2c-.1-.3-.2-.7-.3-1-.1-.3-.2-.7-.3-1H19c-2.3-.1-3.7.9-5.2 3.7l.3.9.3.9c.1.3.2.6.4.9.1.3.3.6.4.8 1.4-2.5 2.8-3.3 5.5-3.1-.1-.3-.2-.6-.3-1-.2-.5-.3-.8-.4-1.1zm8.8 14.4c-.2-.2-.4-.3-.6-.5-.2-.2-.4-.4-.6-.5l-.6-.6-.6-.6H26c-2.2-.1-3.3.3-4.1 1.8.2.2.4.3.6.5.2.1.4.3.6.4.2.1.4.3.6.4.2.1.4.2.6.4.8-1.2 1.9-1.5 4.5-1.3zm-10.6-31c0-.4.1-.8.1-1.2 0-.4.1-.8.1-1.1 0-.4.1-.8.1-1.1.1-.4.1-.7.2-1.1h-.4c-2.4 0-4.3 1.2-6.9 4.4v4.4c2.3-3.3 4.1-4.4 6.8-4.3zm-6.6 8.5c0 .4.1.7.1 1.1 0 .4.1.7.2 1 2.1-3.1 3.7-4.2 6.4-4 0-.3 0-.6-.1-.9v-3.9h-.4c-2.3 0-4 1.1-6.3 4.5 0 .4.1.7.1 1.1-.1.3-.1.7 0 1.1zm1.1 6c.1.3.2.6.3 1l.3.9c1.7-2.8 3.3-3.8 5.9-3.6-.1-.4-.1-.7-.2-1.1-.1-.4-.1-.7-.2-1.1-.1-.4-.1-.7-.2-1.1 0-.4-.1-.8-.1-1.1h-.4c-2.3-.1-3.8 1-5.8 4.1.1.3.1.7.2 1 0 .3.1.6.2 1z" class="st0"/><path d="M57.7 19.738c-.9-3.6-2.2-6.9-3.9-9.7-1.7-2.8-3.6-5.2-5.9-6.9-2.3-1.7-4.8-2.8-7.5-3.1-2.7-.2-5.4.4-7.8 1.8-2.5 1.4-4.7 3.6-6.6 6.4-1.9 2.8-3.5 6.3-4.6 10.2-1.1 3.9-1.7 8.3-1.7 12.8 0 4.6.6 8.9 1.7 12.8 1.1 3.9 2.7 7.4 4.6 10.2 1.9 2.8 4.2 5 6.6 6.4 2.4 1.4 5.1 2.1 7.8 1.8 2.7-.2 5.2-1.3 7.5-3.1 2.2-1.7 4.2-4.1 5.9-6.9 1.6-2.8 2.9-6.1 3.9-9.7.9-3.6 1.4-7.5 1.4-11.6 0-3.9-.5-7.8-1.4-11.4zm-23.6 13.6s0 .1 0 0c0 .7-.1 1.4-.2 2v.2c-.1.6-.2 1.2-.3 1.7v.2l-.3 1.2c-.1.3-.1.5-.2.8-.1.4-.2.7-.3 1-.1.2-.1.4-.2.7-.1.4-.3.7-.4 1.1-.1.2-.1.4-.2.5-.2.5-.4 1-.7 1.4v.1c-.3.5-.5 1-.8 1.4-.1.1-.2.3-.3.4l-.1.1c-1.1-1.8-1.9-3.8-2.6-6.1-.7-2.7-1.1-5.6-1.1-8.7 0-3.1.4-6 1.1-8.7.6-2.3 1.5-4.3 2.6-6.1.1.1.1.2.2.3.1.1.1.2.2.3.3.4.5.8.7 1.3.2.5.5.9.7 1.4.1.1.1.3.2.4.2.4.3.9.5 1.3 0 .1.1.2.1.2.2.6.4 1.1.5 1.7.2.6.3 1.2.4 1.8v.1l.3 1.8v.1c.1.6.1 1.3.2 1.9v.1c0 .7.1 1.3.1 2 0 .8 0 1.5-.1 2.1zm18.4 6.1c-.6 2.5-1.6 4.8-2.7 6.7-1.2 2-2.6 3.6-4.1 4.7-1.6 1.2-3.3 1.9-5.2 2h-1.3.6c.1 0 .2 0 .3-.1h.1c.2 0 .3-.1.5-.1h.2c.1 0 .2-.1.3-.1.1 0 .1 0 .2-.1.1 0 .1-.1.2-.1 0 0 .1 0 .1-.1.1 0 .2-.1.3-.1 0 0 .1 0 .1-.1h.1c.2-.1.3-.2.5-.3 0 0 .1 0 .1-.1.1-.1.2-.1.3-.2 0 0 .1 0 .1-.1.1-.1.2-.1.3-.2.1 0 .1-.1.2-.1l.1-.1s.1 0 .1-.1l.1-.1c.1-.1.2-.1.3-.2.2-.1.4-.3.5-.5l.2-.2.1-.1c.1-.1.2-.1.2-.2.2-.2.3-.3.4-.5.1-.2.3-.3.4-.5.2-.2.4-.5.6-.8.1-.2.2-.3.4-.5 0 0 0-.1.1-.1l.6-.9c.1-.1.2-.2.2-.4.3-.5.5-1 .8-1.5 0-.1.1-.1.1-.2.2-.4.4-.9.6-1.4.1-.2.1-.4.2-.6.1-.3.2-.6.4-1v-.1c.1-.2.1-.5.2-.7.1-.4.2-.7.3-1.1 0-.1 0-.1.1-.2 0-.2.1-.4.1-.6.1-.3.1-.5.2-.8 0-.2.1-.3.1-.5v-.5c.1-.3.1-.6.2-.9 0-.2.1-.4.1-.6v-.3c0-.3.1-.6.1-1 0-.2 0-.5.1-.7v-5.1c0-.3 0-.5-.1-.8 0-.3-.1-.5-.1-.8v-.2c0-.2-.1-.4-.1-.6 0-.3-.1-.5-.1-.8 0-.2-.1-.4-.1-.5v-.2c-.1-.3-.1-.6-.2-.9-.1-.3-.1-.6-.2-.9-.1-.3-.1-.6-.2-.9-.1-.3-.2-.6-.3-.8v-.1c0-.1-.1-.2-.1-.3-.2-.5-.3-.9-.5-1.3-.1-.1-.1-.3-.2-.4-.2-.5-.4-1-.7-1.5-.2-.4-.4-.7-.5-1-.1-.1-.1-.2-.2-.3 0-.1-.1-.1-.1-.2s-.1-.1-.1-.2c-.2-.4-.5-.7-.7-1.1 0-.1-.1-.1-.1-.2-.3-.4-.6-.8-.9-1.1-.1-.1-.2-.2-.2-.3-.1-.1-.2-.3-.3-.4-.1-.2-.3-.3-.5-.4l-.2-.2c-.3-.3-.7-.6-1-.8l-.1-.1c-.2-.2-.4-.3-.6-.4 0 0-.1 0-.1-.1-.2-.1-.4-.3-.7-.4 0 0-.1 0-.1-.1 0 0-.1 0-.1-.1l-.6-.3c-.1 0-.1 0-.2-.1-.3-.1-.5-.2-.8-.3-.1 0-.1 0-.2-.1-.2-.1-.4-.1-.7-.2h-.2c-.2 0-.4-.1-.6-.1.5 0 .9-.1 1.4 0 1.9.1 3.6.8 5.2 2s3 2.8 4.1 4.7c1.2 1.9 2.1 4.2 2.7 6.7.6 2.5 1 5.2 1 8.1.2 4.2-.2 6.9-.8 9.4z" class="st0"/></g></svg>