<svg xmlns="http://www.w3.org/2000/svg" width="46.4" height="47.111"><g fill="#bdbdbd"><path d="M32.7 26.11v.5c0 .2.1.3.1.4 0 .1.1.2.1.2 0 .1.1.1.1.2.1 0 .1.1.2.1h.4s.1 0 .1-.1l.1-.1c.1-.1.2-.2.2-.4.1-.1.1-.3.1-.4v-.5c0-.2-.1-.3-.1-.4 0-.1-.1-.2-.1-.2 0-.1-.1-.1-.1-.2-.1 0-.1-.1-.2-.1h-.4s-.1 0-.1.1l-.1.1c-.1.1-.2.2-.2.4-.1.1-.1.2-.1.4zM29 46.81c-.2 0-.4-.1-.7-.1-.1 0-.2 0-.2-.1l-.9-.3s-.1 0-.1-.1c-.2-.1-.5-.2-.7-.3-.1 0-.2-.1-.2-.1-.2-.1-.4-.2-.7-.3-.1 0-.1-.1-.2-.1-.3-.2-.5-.3-.8-.5-.4-.3-.7-.6-1.1-.9-.1-.1-.2-.2-.3-.2l-.9-.9-.2-.2c-.3-.4-.7-.8-1-1.2-.1-.1-.1-.2-.2-.3-.3-.4-.5-.7-.8-1.1-.1-.1-.1-.2-.2-.3-.3-.5-.6-1-.8-1.5-.1-.1-.1-.2-.2-.3-.2-.4-.4-.9-.6-1.3-.1-.1-.1-.3-.2-.4-.2-.6-.5-1.1-.7-1.7 0-.1 0-.1-.1-.2l-.6-1.8c0-.1 0-.1-.1-.2-.2-.6-.3-1.3-.4-1.9v-.2c-.1-.7-.3-1.4-.3-2.1v-.1c-.1-.7-.2-1.5-.2-2.2v-.2c0-.8-.1-1.5-.1-2.3 0-.8 0-1.6.1-2.3v-.2c0-.8.1-1.5.2-2.2v-.1l.3-2.1v-.2c.1-.5.2-1 .3-1.4.1-.3.2-.7.3-1 .1-.4.2-.7.3-1l.3-.9c.1-.3.2-.7.4-1 .1-.3.2-.6.4-.9.1-.3.3-.6.4-.9.1-.3.3-.5.4-.8.2-.3.3-.6.5-.9.1-.2.3-.5.4-.7.2-.3.4-.5.6-.8.2-.2.3-.4.5-.6.2-.3.4-.5.6-.7.2-.2.3-.4.5-.6l.7-.7.5-.5c.4-.3.7-.6 1.1-.9l.1-.1c.1-.1.2-.1.3-.2.1-.1.2-.1.3-.2.1-.1.2-.1.3-.2.1-.1.2-.1.3-.2.2-.1.4-.2.5-.3h.1c.2-.1.4-.2.6-.2.1 0 .1 0 .2-.1.2-.1.3-.1.5-.1.1 0 .2 0 .2-.1.2 0 .4-.1.5-.1h.1c.2 0 .4-.1.6-.1h.8c-5 .2-10 .4-15 .5h-.5c-.2 0-.3 0-.5.1-.2 0-.3 0-.5.1-.1 0-.3.1-.4.1-.2 0-.4.1-.6.2-.1 0-.3.1-.4.1h-.2c-.2.1-.4.1-.6.2-.2.1-.4.2-.6.2h-.1s-.1 0-.1.1c-.2.1-.3.2-.5.2-.2.1-.4.3-.7.4 0 0-.1 0-.1.1 0 0-.1 0-.1.1-.1.1-.3.2-.4.3-.2.2-.4.3-.6.5l-.1.1c-.2.1-.3.3-.5.5s-.5.4-.7.6c-.2.2-.3.4-.5.6-.2.2-.4.4-.5.6l-.1.1c-.2.2-.3.4-.5.6-.2.3-.4.5-.6.8 0 .1-.1.1-.1.2-.1.2-.2.4-.3.5-.1.2-.3.4-.4.6 0 .1-.1.2-.1.2-.1.2-.3.5-.4.8-.2.3-.3.6-.5.9-.1.3-.2.6-.4.9l-.3.6c0 .1-.1.2-.1.3l-.3.9c-.1.3-.2.7-.3 1 0 .1-.1.2-.1.4-.1.2-.1.4-.1.6-.1.2-.1.4-.2.6-.1.3-.1.5-.2.8v.2c-.1.3-.1.7-.2 1.1 0 .3-.1.6-.1.9v.2c0 .4-.1.7-.1 1.1 0 .3-.1.6-.1.8v5.8c0 .3.1.6.1.9 0 .3.1.6.1.8 0 .3.1.6.1.9 0 .3.1.6.2.9 0 .1 0 .2.1.3v.2c0 .1 0 .2.1.3.1.3.2.7.2 1 0 .2.1.4.1.5v.2c0 .1 0 .1.1.2.1.3.2.6.3 1 .1.2.1.4.2.6 0 .1 0 .1.1.2v.1l.6 1.5c.1.1.1.3.2.4.2.4.4.9.6 1.3.1.1.1.2.2.3.2.4.5.9.7 1.3 0 .1.1.1.1.2 0 0 0 .1.1.1 0 .1.1.1.1.2.2.4.5.7.8 1.1.1.1.1.2.2.3.3.4.7.8 1 1.2l.2.2c.2.2.3.4.5.5.1.1.3.2.4.3.1.1.2.2.3.2.4.3.7.6 1.1.9 0 0 .1 0 .1.1.3.2.7.4 1 .6.1.1.2.1.3.2.1 0 .2.1.2.1.3.1.7.3 1 .4h.1l1.2.3c.1 0 .2 0 .3.1.4.1.9.1 1.3.1l15.1.5c-.3 0-.6 0-.9-.1.7-.2.6-.2.5-.2zm-13.8-1.9c-.3 0-.7-.1-1.1-.1-.1 0-.2 0-.3-.1-.4-.1-.7-.2-1-.3h-.1c-.3-.1-.6-.2-.8-.3h-.1c-.1 0-.1-.1-.2-.1s-.2-.1-.3-.1c-.3-.2-.6-.3-.9-.5 0 0-.1 0-.1-.1-.3-.2-.7-.5-1-.8l-.1-.1-.1-.1-.2-.1-.2-.2-.3-.3-.1-.1-.1-.1-.1-.1c-.3-.3-.6-.7-.9-1.1 0-.1-.1-.1-.1-.2l-.1-.1c-.2-.3-.5-.7-.7-1 0-.1-.1-.1-.1-.2 0 0 0-.1-.1-.1l-.1-.2c-.2-.3-.4-.7-.7-1.2l-.1-.2-.1-.1-.6-1.2-.1-.2v-.1l-.6-1.5v-.4c-.1-.2-.1-.3-.2-.5l-.3-.9v-.3l-.1-.2c0-.1-.1-.2-.1-.3-.1-.3-.2-.6-.2-1v-.9c-.1-.3-.1-.5-.1-.8 0-.3-.1-.6-.1-.8v-.1c0-.3-.1-.5-.1-.8 0-.3-.1-.5-.1-.8v-5.1c0-.3 0-.5.1-.8 0-.4.1-.7.1-1v-.2c0-.3.1-.6.1-.9.1-.3.1-.7.2-1v-.3c.1-.3.1-.5.2-.8 0-.1.1-.2.1-.3 0-.1.1-.2.1-.3 0-.1 0-.2.1-.3 0-.1 0-.2.1-.3v-.1c0-.1 0-.1.1-.2.1-.3.2-.7.3-1 .1-.3.2-.5.3-.8 0-.1 0-.1.1-.2v-.1c0-.1.1-.2.1-.3 0-.1.1-.2.1-.3v-.1c.1-.3.2-.5.3-.8.1-.3.3-.6.4-.9l.1-.1.3-.6c0-.1.1-.1.1-.2v-.1c.1-.1.1-.2.2-.3.1-.1.1-.2.2-.3 0-.1.1-.2.1-.3 0-.1.1-.2.1-.2l.1-.1c.1-.2.3-.4.4-.6l.1-.1.1-.2c.1-.1.2-.3.3-.4l.1-.1.3-.3c.1-.1.1-.2.2-.2l.2-.2.3-.3c.2-.2.3-.3.5-.4l.1-.1.2-.2.3-.3.1-.1c.2-.1.4-.3.5-.4.1-.1.2-.2.3-.2h.1s.1 0 .1-.1h.1c.2-.1.4-.2.6-.4.1-.1.2-.1.3-.2h.1l.1-.1h.1c.2-.1.3-.1.5-.2s.3-.1.5-.2h.2c.1 0 .2-.1.3-.1.2 0 .3-.1.5-.1.1 0 .2 0 .3-.1.1 0 .3 0 .4-.1h.8l7.2-.3c-.1.1-.2.2-.4.3l-.2.1-.1.1-.6.6c-.1.1-.3.3-.4.5l-.1.2-.1.1c-.2.2-.4.4-.6.7-.1.2-.3.3-.4.5l-.1.2-.1.1c-.2.3-.4.5-.5.8-.1.2-.2.4-.4.6l-.1.2c-.2.3-.4.6-.5.9-.1.2-.2.5-.4.7h-.3c-.2.3-.3.7-.5 1-.1.3-.2.6-.4.9v.1c-.1.3-.3.7-.4 1l-.3.9v.1c-.1.4-.2.7-.3 1.1-.1.3-.2.7-.3 1l-.3 1.5v.2c-.1.7-.3 1.4-.4 2.2v.1c-.1.8-.2 1.5-.2 2.3v.2c-.1.8-.1 1.6-.1 2.4 0 .8 0 1.6.1 2.4v.1c.1.8.1 1.5.2 2.3v.1c.1.7.2 1.5.4 2.2v.2c.1.7.3 1.3.5 2v.2c.2.7.4 1.3.6 1.9v.2c.2.6.4 1.2.7 1.8 0 .1.1.2.1.3l.1.1c.2.5.4 1 .7 1.4l.1.1c0 .1.1.2.1.2l.9 1.5c0 .1.1.2.1.2l.1.1c.3.4.5.8.8 1.2l.1.1.2.2c.4.5.7.9 1.1 1.3l.2.2.1.1c.3.3.6.6 1 .9l.1.1.1.1-7.4-.1zm16.3-24.4c.1.1.2.2.2.3.1.1.2.1.3.1.1 0 .2 0 .3-.1.1-.1.2-.1.2-.3.1-.1.1-.2.2-.4 0-.1.1-.3.1-.5s0-.3-.1-.5c0-.1-.1-.3-.2-.4-.1-.1-.2-.2-.2-.3-.1-.1-.2-.1-.3-.1-.1 0-.2 0-.3.1-.1.1-.2.1-.2.3-.1.1-.1.2-.2.4 0 .1-.1.3-.1.5s0 .3.1.5c.1.1.1.3.2.4zm3.2.7l-.2-.2c-.1 0-.2-.1-.2-.1h-.4c-.1 0-.2.1-.3.2-.1.1-.1.2-.2.4 0 .1-.1.3-.1.4v.5c0 .1.1.2.1.3 0 .1.1.2.2.3l.2.2c.1 0 .2.1.2.1h.4c.1-.1.2-.1.3-.2.1-.1.1-.2.2-.4 0-.1.1-.3.1-.4v-.5c0-.1-.1-.2-.1-.3-.1-.2-.1-.2-.2-.3z" class="st0"/><path d="M45.3 14.61c-.7-2.7-1.7-5.2-3-7.4-1.3-2.1-2.8-3.9-4.6-5.1C36 .81 34 .11 32 .01c-2.1-.1-4 .5-5.9 1.6-1.8 1.1-3.5 2.8-4.9 4.9-1.4 2.1-2.6 4.7-3.4 7.6-.8 2.9-1.2 6.1-1.2 9.4 0 3.4.4 6.5 1.2 9.4.8 2.9 1.9 5.4 3.4 7.6 1.4 2.1 3.1 3.8 4.9 4.9 1.8 1.1 3.8 1.7 5.9 1.6 2-.1 4-.9 5.7-2.1 1.7-1.3 3.3-3 4.6-5.1 1.3-2.1 2.3-4.6 3-7.4.7-2.7 1.1-5.7 1.1-8.9s-.4-6.2-1.1-8.9zm-1 17c-.7 2.5-1.6 4.8-2.8 6.8-1.2 2-2.6 3.6-4.2 4.7-1.6 1.2-3.4 1.8-5.3 1.9-1.9.1-3.7-.4-5.4-1.5-1.7-1-3.2-2.6-4.5-4.5-1.3-2-2.4-4.3-3.1-7-.7-2.7-1.1-5.6-1.1-8.7 0-3.1.4-6 1.1-8.7.7-2.6 1.8-5 3.1-7s2.8-3.5 4.5-4.5c1.7-1 3.5-1.6 5.4-1.5 1.9.1 3.7.8 5.3 1.9 1.6 1.2 3 2.8 4.2 4.7 1.2 2 2.1 4.3 2.8 6.8.7 2.5 1 5.3 1 8.2 0 2.9-.3 5.9-1 8.4z" class="st0"/><path d="M33.5 19.41v.2c0 .1 0 .1.1.2l.1.1.1.1s.1 0 .1.1h.5l7.9-5.1.1-.1s.1-.1.1-.2.1-.1.1-.2 0-.1.1-.2v-.6c0-.1 0-.2-.1-.2-.4-1.1-.9-2.1-1.4-3.1-.5-.9-1.1-1.8-1.8-2.6-.6-.8-1.3-1.4-2-2-.7-.6-1.5-1-2.3-1.4-.1 0-.2 0-.3.1-.1 0-.2.1-.2.2-.1.1-.1.2-.2.3 0 .1-.1.3-.1.4l-.6 13.7v.2c-.2 0-.2.1-.2.1zm.5-.3l.6-12.4c.7.3 1.4.7 2 1.2.6.5 1.3 1.1 1.8 1.8.6.7 1.1 1.4 1.6 2.3.5.8.9 1.7 1.2 2.7l-7.1 4.6H34v-.2zm-12.9-5.1c0 .1.1.1.1.2s.1.1.1.2.1.1.2.1l8.3 5.4h.6s.1 0 .1-.1l.1-.1s0-.1.1-.2v-.6l-.6-13.9c0-.2 0-.3-.1-.4 0-.1-.1-.3-.2-.4-.1-.1-.1-.2-.2-.2s-.2-.1-.3-.1c-.8.3-1.6.7-2.3 1.2-.8.5-1.5 1.2-2.2 1.9-.7.7-1.3 1.6-1.9 2.5-.6.9-1.1 2-1.6 3.1 0 .1-.1.2-.1.2v.6c-.2.4-.1.5-.1.6zm2.7-2.5c.5-.8 1.1-1.6 1.7-2.3.6-.7 1.2-1.2 1.9-1.7s1.4-.8 2.1-1.1l.6 12.6v.1l-7.5-4.9c.3-.9.7-1.8 1.2-2.7zm5.5 14c0-.1 0-.2.1-.2v-.4c0-.1 0-.1-.1-.2 0-.1-.1-.1-.1-.2s-.1-.1-.1-.1-.1-.1-.2-.1l-8.8-3.4c-.1 0-.2 0-.3.1-.1.1-.2.1-.2.2-.1.1-.1.2-.2.3 0 .1-.1.3-.1.4v1.6c0 1.2.1 2.4.2 3.6.1 1.2.3 2.3.6 3.4s.6 2.2 1 3.2.8 2 1.3 2.9c0 .1.1.1.1.2s.1.1.1.1.1.1.2.1h.4c.1 0 .1-.1.2-.1l.1-.1c0-.1.1-.1.1-.2l5.8-10.8c-.1-.1-.1-.2-.1-.3zm-.5-.3l-5.2 9.7c-.4-.8-.8-1.6-1.2-2.5-.3-.9-.6-1.8-.9-2.8l-.6-3c-.1-1-.2-2.1-.2-3.2v-1.3l7.9 3 .2.1zm15.4-2.5v-.8c0-.1 0-.3-.1-.4 0-.1-.1-.2-.1-.3-.1-.1-.1-.2-.2-.2-.1-.1-.2-.1-.3-.1l-8.2 3.2c-.1 0-.1.1-.2.1l-.1.1c0 .1-.1.1-.1.2s0 .1-.1.2v.4c0 .1 0 .2.1.2 0 .1.1.1.1.2l5.5 10.3c0 .1.1.1.1.2s.1.1.1.1l.1.1h.3s.1 0 .1-.1l.1-.1c0-.1.1-.1.1-.2.5-.9.9-1.8 1.2-2.8.4-1 .7-2 .9-3.1.2-1.1.4-2.2.5-3.3.1-1.1.2-2.2.2-3.4v-.4c.1.1 0 0 0-.1zm-1.7 3.8c-.1 1-.3 2-.5 2.9-.2.9-.5 1.8-.8 2.7-.3.9-.7 1.7-1.1 2.4l-4.9-9.3v-.2l7.4-2.9v1.2c.1 1.1 0 2.2-.1 3.2zm-12.2-3.3c.1-.1.1-.2.2-.3 0-.1.1-.2.1-.3v-.5c0-.2 0-.3-.1-.4 0-.1-.1-.3-.2-.4-.1-.1-.2-.2-.3-.2h-.4c-.1 0-.2 0-.2.1s-.1.1-.2.2-.1.2-.2.3c0 .1-.1.2-.1.4v.5c0 .2 0 .3.1.5 0 .1.1.3.2.4.1.1.2.2.3.2h.4c.1 0 .2 0 .2-.1 0-.3.1-.4.2-.4zm6.9 17c0-.1 0-.1-.1-.2l-4.5-11.6c0-.1-.1-.1-.1-.2s-.1-.1-.1-.1l-.1-.1h-.2l-.1.1s-.1.1-.1.2-.1.1-.1.2l-4.7 12c0 .1-.1.2-.1.2v.7c0 .1 0 .2.1.2 0 .1.1.1.1.2s.1.1.1.2l.1.1 1.2.6c.4.2.8.3 1.2.4.4.1.8.2 1.2.2.4 0 .8.1 1.2 0 .4 0 .8-.1 1.2-.1l1.2-.3c.4-.1.8-.3 1.2-.5.4-.2.8-.4 1.1-.7l.1-.1s.1-.1.1-.2.1-.1.1-.2 0-.1.1-.2v-.4c-.1-.3-.1-.4-.1-.4zm-2-.4c-.3.2-.7.3-1 .5-.3.1-.7.2-1.1.3-.4.1-.7.1-1.1.1h-1.1c-.4 0-.7-.1-1.1-.2-.4-.1-.7-.2-1-.4-.3-.2-.7-.3-1-.5l4.2-10.7v-.1.1l4.1 10.4c-.2.1-.5.3-.9.5zm-4.9-14.6c-.1 0-.1.1-.2.2 0 .1-.1.1-.1.2-.1.1-.1.3-.1.4v.5c0 .2 0 .3.1.4.1.1.1.3.2.4l.1.1.1.1h.4c.1 0 .1-.1.2-.1s.1-.1.2-.2c0-.1.1-.1.1-.2.1-.1.1-.3.1-.4v-.5c0-.2 0-.3-.1-.4-.1-.1-.1-.3-.2-.4l-.1-.1-.1-.1h-.4c-.1 0-.1.1-.2.1z" class="st0"/></g></svg>